HIERARCHY
ROOT Hips
{
 OFFSET 0.000000 0.000000 0.000000
 CHANNELS 6 Xposition Yposition Zposition Yrotation Xrotation Zrotation
 JOINT Chest
 {
  OFFSET 0.000000 9.585900 0.002600
  CHANNELS 3 Yrotation Xrotation Zrotation
  JOINT Chest2
  {
   OFFSET 0.000000 9.601200 -0.005300
   CHANNELS 3 Yrotation Xrotation Zrotation
   JOINT Chest3
   {
    OFFSET 0.000000 9.561800 0.000000
    CHANNELS 3 Yrotation Xrotation Zrotation
    JOINT Chest4
    {
     OFFSET 0.000000 9.552100 0.000000
     CHANNELS 3 Yrotation Xrotation Zrotation
     JOINT Neck
     {
      OFFSET 0.000000 14.453000 0.000000
      CHANNELS 3 Yrotation Xrotation Zrotation
      JOINT Head
      {
       OFFSET 0.000000 8.936500 -0.011300
       CHANNELS 3 Yrotation Xrotation Zrotation
       End Site
       {
        OFFSET 0.000000 17.073600 -0.006000
       }
      }
     }
     JOINT RightCollar
     {
      OFFSET -2.921100 9.558500 0.000000
      CHANNELS 3 Yrotation Xrotation Zrotation
      JOINT RightShoulder
      {
       OFFSET -13.519700 0.000000 0.000000
       CHANNELS 3 Yrotation Xrotation Zrotation
       JOINT RightElbow
       {
        OFFSET 0.000000 -29.696600 0.000000
        CHANNELS 3 Yrotation Xrotation Zrotation
        JOINT RightWrist
        {
         OFFSET 0.000000 -24.004700 0.000000
         CHANNELS 3 Yrotation Xrotation Zrotation
         End Site
         {
          OFFSET 0.000000 -17.728500 0.000000
         }
        }
       }
      }
     }
     JOINT LeftCollar
     {
      OFFSET 2.921100 9.558500 0.000000
      CHANNELS 3 Yrotation Xrotation Zrotation
      JOINT LeftShoulder
      {
       OFFSET 13.519700 0.000000 0.000000
       CHANNELS 3 Yrotation Xrotation Zrotation
       JOINT LeftElbow
       {
        OFFSET 0.000000 -29.696600 0.000000
        CHANNELS 3 Yrotation Xrotation Zrotation
        JOINT LeftWrist
        {
         OFFSET 0.000000 -24.004700 0.000000
         CHANNELS 3 Yrotation Xrotation Zrotation
         End Site
         {
          OFFSET 0.000000 -17.728500 0.000000
         }
        }
       }
      }
     }
    }
   }
  }
 }
 JOINT RightHip
 {
  OFFSET -7.771700 -0.012900 -0.001300
  CHANNELS 3 Yrotation Xrotation Zrotation
  JOINT RightKnee
  {
   OFFSET 0.000000 -40.869800 0.001200
   CHANNELS 3 Yrotation Xrotation Zrotation
   JOINT RightAnkle
   {
    OFFSET 0.000000 -39.717900 0.002100
    CHANNELS 3 Yrotation Xrotation Zrotation
    JOINT RightToe
    {
     OFFSET 0.000000 -4.965400 11.033500
     CHANNELS 3 Yrotation Xrotation Zrotation
     End Site
     {
      OFFSET 0.000000 -1.423100 5.872300
     }
    }
   }
  }
 }
 JOINT LeftHip
 {
  OFFSET 7.771700 -0.012900 -0.001300
  CHANNELS 3 Yrotation Xrotation Zrotation
  JOINT LeftKnee
  {
   OFFSET 0.000000 -40.869800 0.001200
   CHANNELS 3 Yrotation Xrotation Zrotation
   JOINT LeftAnkle
   {
    OFFSET 0.000000 -39.717900 0.002100
    CHANNELS 3 Yrotation Xrotation Zrotation
    JOINT LeftToe
    {
     OFFSET 0.000000 -4.965400 11.033500
     CHANNELS 3 Yrotation Xrotation Zrotation
     End Site
     {
      OFFSET 0.000000 -1.423100 5.872300
     }
    }
   }
  }
 }
}
MOTION
Frames: 9
Frame Time: 0.008333
0.000000 85.388000 0.000000 0.000000 -5.767877 0.000000 0.000000 11.653817 0.000000 0.000000 -5.885947 0.000000 0.000000 -0.000000 0.000000 0.000000 -0.000000 0.000000 0.000000 12.528835 0.000000 0.000000 0.711642 0.000000 0.000000 -0.000000 0.000000 0.000000 0.000000 -90.000000 0.000000 -2.309062 0.000000 0.000000 2.309062 0.000000 0.000000 -0.000000 0.000000 0.000000 -0.000000 90.000000 0.000000 -2.309062 0.000000 0.000000 2.309062 0.000000 0.000000 8.520406 0.000000 0.000000 1.905762 0.000000 -0.000000 -4.658285 0.000000 0.000000 -0.000000 0.000000 0.000000 8.520406 0.000000 0.000000 1.905762 0.000000 -0.000000 -4.658285 0.000000 0.000000 -0.000000 0.000000
-22.251562 60.597393 30.454194 159.780603 -31.744669 6.392461 1.928689 21.291198 1.870096 0.171708 2.871440 0.336130 0.288807 4.676950 0.552542 1.361432 18.182103 2.356279 6.414055 13.558117 -3.073808 7.735552 -11.290613 -4.833177 6.473014 1.707699 -6.873328 18.894401 -15.250826 -3.104984 -80.689160 -47.170169 102.902874 -11.420290 -7.429019 -8.417192 -10.122132 -0.658140 -1.706693 -1.176999 -11.320514 -4.384645 66.113598 -56.294845 -113.742965 -8.893180 -0.530328 -17.572777 12.503125 -38.898890 -0.098160 -30.855041 66.713712 -34.648870 -2.069003 -0.523445 5.952322 0.388382 -1.101087 0.262713 3.024107 -33.998329 0.316820 35.186806 59.915736 35.705472 -17.111712 -7.601782 -5.372018 0.105625 0.947761 0.041765
-22.253095 60.590077 30.437259 159.712599 -31.714774 6.458712 1.892194 21.341844 1.834183 0.202699 2.834682 0.323248 0.285268 4.665682 0.549222 1.377219 18.162550 2.338872 6.469539 13.552141 -3.017104 7.814824 -11.293964 -4.803302 6.418884 1.768840 -6.799242 18.953010 -15.269153 -3.211213 -80.633000 -47.209795 102.811903 -11.417605 -7.427403 -8.438533 -10.111649 -0.648774 -1.725310 -1.134891 -11.347981 -4.247879 66.025135 -56.266019 -113.771190 -8.884262 -0.534160 -17.566842 12.507864 -38.955507 -0.145074 -30.945799 66.753375 -34.737447 -2.001791 -0.502122 5.886590 0.367346 -1.121850 0.256693 3.109641 -34.022163 0.289648 35.235717 59.962019 35.726903 -17.088084 -7.650279 -5.332705 0.084496 0.957301 0.031684
-22.252083 60.578317 30.423274 159.637199 -31.654230 6.509585 1.902436 21.340775 1.816454 0.205982 2.816428 0.319358 0.238978 4.676858 0.554335 1.433178 18.122733 2.310867 6.517995 13.544304 -2.938733 7.869702 -11.296422 -4.775389 6.382965 1.815320 -6.753421 19.014664 -15.293425 -3.285944 -80.582263 -47.241850 102.701927 -11.423002 -7.427507 -8.463079 -10.122192 -0.605774 -1.765336 -1.057989 -11.411659 -4.061458 65.924107 -56.206923 -113.801567 -8.880085 -0.539407 -17.569817 12.529063 -39.047292 -0.184153 -30.947019 66.809422 -34.750822 -1.939267 -0.465233 5.859413 0.309644 -1.149476 0.228767 3.191443 -34.080281 0.316200 35.246172 60.026771 35.700328 -17.118720 -7.705084 -5.316675 0.029807 0.967390 0.044457
-22.247218 60.560733 30.416147 159.559600 -31.548124 6.528922 1.967013 21.263189 1.834104 0.184714 2.828936 0.324984 0.236570 4.668108 0.546984 1.416937 18.103422 2.300752 6.567708 13.537993 -2.881760 7.909245 -11.307077 -4.718920 6.382730 1.848395 -6.729946 18.970258 -15.266924 -3.345165 -80.498410 -47.243479 102.670647 -11.431990 -7.427810 -8.488683 -10.102679 -0.554055 -1.813117 -0.983936 -11.480310 -3.915005 65.798294 -56.183911 -113.803555 -8.884447 -0.541275 -17.576798 12.553323 -39.193139 -0.203906 -30.954850 66.867619 -34.759061 -1.868052 -0.443883 5.839554 0.250758 -1.166362 0.198469 3.234499 -34.192203 0.436307 35.218410 60.122118 35.602895 -17.208544 -7.772234 -5.330191 0.185379 0.990244 0.108988
-22.243059 60.547283 30.400813 159.536751 -31.501876 6.546128 1.968747 21.240957 1.824027 0.137515 2.871170 0.331593 0.263200 4.631827 0.535778 1.401668 18.085875 2.287855 6.602861 13.527661 -2.816098 7.930385 -11.321195 -4.650629 6.379235 1.874130 -6.707080 18.950316 -15.246377 -3.394859 -80.452176 -47.238093 102.686405 -11.430641 -7.416147 -8.553855 -10.073696 -0.509980 -1.846677 -0.916833 -11.537335 -3.789730 65.661857 -56.171249 -113.791204 -8.895597 -0.539395 -17.587154 12.547727 -39.281740 -0.258318 -31.158395 66.916394 -34.876557 -1.836868 -0.456328 5.713718 0.308800 -1.173246 0.218004 3.258491 -34.239428 0.443559 35.256042 60.164014 35.608756 -17.148606 -7.831087 -5.312460 0.211244 1.020980 0.110564
-22.233822 60.530620 30.391350 159.543932 -31.435091 6.513242 1.945942 21.217183 1.851060 0.129028 2.876094 0.326306 0.269151 4.613197 0.528630 1.384653 18.065024 2.274356 6.627127 13.519282 -2.745511 7.934189 -11.338912 -4.572551 6.401164 1.883733 -6.699231 18.908758 -15.219638 -3.419589 -80.359184 -47.238564 102.604684 -11.438198 -7.419830 -8.550210 -10.038754 -0.477890 -1.870945 -0.855424 -11.570124 -3.683733 65.524575 -56.170626 -113.763454 -8.909609 -0.537139 -17.602753 12.504240 -39.397731 -0.275396 -31.273272 66.974179 -34.929202 -1.791304 -0.449643 5.635526 0.316085 -1.193364 0.212426 3.178015 -34.318147 0.584684 35.239424 60.233413 35.504954 -17.241548 -7.883180 -5.336623 0.349396 1.048657 0.171638
-22.224833 60.515947 30.379789 159.563287 -31.391788 6.486655 1.886467 21.254729 1.855774 0.151817 2.835783 0.319927 0.281929 4.587752 0.524745 1.325819 18.080417 2.246379 6.667440 13.491463 -2.668506 7.921387 -11.360010 -4.486410 6.446907 1.869855 -6.684424 18.860312 -15.190770 -3.441752 -80.255791 -47.238144 102.526432 -11.443319 -7.421899 -8.545716 -9.984740 -0.459843 -1.893850 -0.795713 -11.595669 -3.575200 65.434753 -56.160186 -113.763118 -8.929555 -0.508623 -17.618351 12.472188 -39.467246 -0.287815 -31.370497 67.003505 -34.970066 -1.792912 -0.468789 5.561402 0.357563 -1.187186 0.225684 3.114754 -34.368857 0.668276 35.238053 60.278051 35.445422 -17.309690 -7.934286 -5.334695 0.353520 1.074867 0.185298
-22.219816 60.503480 30.366108 159.488494 -31.355258 6.542132 1.916255 21.287787 1.830980 0.157790 2.819345 0.314987 0.291185 4.559273 0.522661 1.303414 18.086689 2.225822 6.663921 13.474472 -2.588435 7.893030 -11.384579 -4.393305 6.395971 1.885888 -6.639004 18.874625 -15.179485 -3.497632 -80.163723 -47.240596 102.483700 -11.442575 -7.415835 -8.567228 -9.974882 -0.427562 -1.923046 -0.735420 -11.612411 -3.467013 65.300882 -56.165791 -113.705704 -8.945518 -0.512049 -17.629596 12.543272 -39.514158 -0.334685 -31.400096 67.035204 -34.975084 -1.791070 -0.491812 5.526633 0.369339 -1.166223 0.225323 3.153409 -34.400741 0.713776 35.266669 60.361940 35.390047 -17.349699 -8.015235 -5.269443 0.258098 1.093754 0.151123
